<svg xmlns="http://www.w3.org/2000/svg" xmlns:xlink="http://www.w3.org/1999/xlink" width="448" zoomAndPan="magnify" viewBox="0 0 336 383.999986" height="512" preserveAspectRatio="xMidYMid meet" version="1.0"><path fill="#2563eb" d="M 285.675781 72.824219 C 254.25 41.324219 212.398438 24 167.925781 24 C 76.125 24 1.425781 98.699219 1.425781 190.5 C 1.425781 219.824219 9.074219 248.476562 23.625 273.75 L 0 360 L 88.273438 336.824219 C 112.574219 350.101562 139.949219 357.074219 167.851562 357.074219 L 167.925781 357.074219 C 259.648438 357.074219 336 282.375 336 190.574219 C 336 146.101562 317.101562 104.324219 285.675781 72.824219 M 167.925781 329.023438 C 143.023438 329.023438 118.648438 322.351562 97.425781 309.75 L 92.398438 306.75 L 40.050781 320.476562 L 54 269.398438 L 50.699219 264.148438 C 36.824219 242.101562 29.550781 216.675781 29.550781 190.5 C 29.550781 114.226562 91.648438 52.125 168 52.125 C 204.976562 52.125 239.699219 66.523438 265.800781 92.699219 C 291.898438 118.875 307.949219 153.601562 307.875 190.574219 C 307.875 266.925781 244.199219 329.023438 167.925781 329.023438 M 243.824219 225.375 C 239.699219 223.273438 219.226562 213.226562 215.398438 211.875 C 211.574219 210.449219 208.800781 209.773438 206.023438 213.976562 C 203.25 218.175781 195.300781 227.476562 192.824219 230.324219 C 190.425781 233.101562 187.949219 233.476562 183.824219 231.375 C 159.375 219.148438 143.324219 209.550781 127.199219 181.875 C 122.925781 174.523438 131.476562 175.050781 139.425781 159.148438 C 140.773438 156.375 140.101562 153.976562 139.050781 151.875 C 138 149.773438 129.675781 129.300781 126.226562 120.976562 C 122.851562 112.875 119.398438 114 116.851562 113.851562 C 114.449219 113.699219 111.675781 113.699219 108.898438 113.699219 C 106.125 113.699219 101.625 114.75 97.800781 118.875 C 93.976562 123.074219 83.25 133.125 83.25 153.601562 C 83.25 174.074219 98.175781 193.875 100.199219 196.648438 C 102.300781 199.425781 129.523438 241.425781 171.300781 259.5 C 197.699219 270.898438 208.050781 271.875 221.25 269.925781 C 229.273438 268.726562 245.851562 259.875 249.300781 250.125 C 252.75 240.375 252.75 232.050781 251.699219 230.324219 C 250.726562 228.449219 247.949219 227.398438 243.824219 225.375 " fill-opacity="1" fill-rule="nonzero"/></svg>